<svg xmlns="http://www.w3.org/2000/svg" xmlns:xlink="http://www.w3.org/1999/xlink" width="38" height="26" viewBox="0 0 38 26"><defs><path id="upt2a" d="M2.9 5.17C2.9 3.97 3.64 3 4.56 3h26.78c.93 0 1.68.98 1.68 2.17V6H2.89zm0 16.15V9.62h30.13v1.18l.32-.01h1.64c.18 0 .36 0 .53.02V4.63A4.64 4.64 0 0 0 30.89 0H4.63A4.64 4.64 0 0 0 0 4.63v16.63a4.64 4.64 0 0 0 4.63 4.63h20.55V23H4.57c-.93 0-1.68-.75-1.68-1.67z"/><path id="upt2b" d="M25.15 18.5a.54.54 0 0 1-.15-.35c0-.1.05-.25.15-.35l.7-.7c.2-.2.5-.2.7 0l.05.05 2.75 2.95c.1.1.25.1.35 0l6.7-6.95h.05c.2-.2.5-.2.7 0l.7.7c.2.2.2.5 0 .7l-8 8.3c-.1.1-.2.15-.35.15a.45.45 0 0 1-.35-.15l-3.9-4.2z"/></defs><g><g><g><use fill="#a3a3a3" xlink:href="#upt2a"/></g><g><use fill="#a3a3a3" xlink:href="#upt2b"/></g></g></g></svg>