<svg xmlns="http://www.w3.org/2000/svg" xmlns:xlink="http://www.w3.org/1999/xlink" width="38" height="26" viewBox="0 0 38 26"><defs><path id="mdr9a" d="M975.9 2522.17c0-1.2.75-2.17 1.67-2.17h26.78c.93 0 1.68.98 1.68 2.17v.83h-30.14zm0 16.15v-11.7h30.13v1.18l.32-.01h1.64c.18 0 .36 0 .53.02v-6.18a4.64 4.64 0 0 0-4.63-4.63h-26.26a4.64 4.64 0 0 0-4.63 4.63v16.63a4.64 4.64 0 0 0 4.63 4.63h20.55v-2.9h-20.61c-.93 0-1.68-.75-1.68-1.67z"/><path id="mdr9b" d="M998.15 2535.5a.54.54 0 0 1-.15-.35c0-.1.05-.25.15-.35l.7-.7c.2-.2.5-.2.7 0l.05.05 2.75 2.95c.1.1.25.1.35 0l6.7-6.95h.05c.2-.2.5-.2.7 0l.7.7c.2.2.2.5 0 .7l-8 8.3c-.1.1-.2.15-.35.15a.45.45 0 0 1-.35-.15l-3.9-4.2z"/></defs><g><g transform="translate(-973 -2517)"><g><use fill="#42b9bb" xlink:href="#mdr9a"/></g><g><use fill="#42b9bb" xlink:href="#mdr9b"/></g></g></g></svg>